<?xml version="1.0" encoding="utf-8"?>
<!-- Generator: Adobe Illustrator 26.5.0, SVG Export Plug-In . SVG Version: 6.00 Build 0)  -->
<svg version="1.1" id="Layer_1" xmlns="http://www.w3.org/2000/svg" xmlns:xlink="http://www.w3.org/1999/xlink" x="0px" y="0px"
	 viewBox="0 0 595.3 304.8" style="enable-background:new 0 0 595.3 304.8;" xml:space="preserve">
<style type="text/css">
	.st0{fill:none;stroke:#010101;stroke-width:0.5;stroke-miterlimit:10;}
	.st1{fill:#010101;}
	.st2{font-family:'MyriadPro-Regular';}
	.st3{font-size:11.6149px;}
	.st4{clip-path:url(#SVGID_00000154410788865853384090000015168574654211771583_);fill:#FFFFFF;}
	
		.st5{clip-path:url(#SVGID_00000154410788865853384090000015168574654211771583_);fill:none;stroke:#D9D9D9;stroke-width:0.53;stroke-linejoin:round;stroke-miterlimit:10;stroke-dasharray:2.13,2.13;}
	.st6{clip-path:url(#SVGID_00000154410788865853384090000015168574654211771583_);fill:#FFA500;}
	.st7{clip-path:url(#SVGID_00000154410788865853384090000015168574654211771583_);fill:#33A02C;}
	
		.st8{clip-path:url(#SVGID_00000154410788865853384090000015168574654211771583_);fill:none;stroke:#474444;stroke-width:0.71;stroke-linecap:round;stroke-linejoin:round;stroke-miterlimit:10;}
	.st9{clip-path:url(#SVGID_00000154410788865853384090000015168574654211771583_);fill:#8C008C;}
	
		.st10{clip-path:url(#SVGID_00000154410788865853384090000015168574654211771583_);fill:none;stroke:#DF546C;stroke-width:0.71;stroke-linecap:round;stroke-linejoin:round;stroke-miterlimit:10;}
	
		.st11{clip-path:url(#SVGID_00000154410788865853384090000015168574654211771583_);fill:none;stroke:#F0F0F0;stroke-width:1.16;stroke-linecap:round;stroke-linejoin:round;stroke-miterlimit:10;}
	.st12{fill:none;stroke:#969696;stroke-width:1.16;stroke-linejoin:round;stroke-miterlimit:10;}
	.st13{fill:#737373;}
	.st14{font-family:'ArialMT';}
	.st15{font-size:6.6111px;}
	.st16{font-size:8px;}
	.st17{font-size:12px;}
	
		.st18{clip-path:url(#SVGID_00000143608063772981877060000009926086812917741713_);fill:none;stroke:#EBEBEB;stroke-width:0.53;stroke-linejoin:round;stroke-miterlimit:10;}
	
		.st19{clip-path:url(#SVGID_00000143608063772981877060000009926086812917741713_);fill:none;stroke:#EBEBEB;stroke-width:1.07;stroke-linejoin:round;stroke-miterlimit:10;}
	.st20{clip-path:url(#SVGID_00000143608063772981877060000009926086812917741713_);}
	.st21{fill:#605E5E;}
	.st22{font-family:'Arial-ItalicMT';}
	.st23{font-size:7.7032px;}
	
		.st24{clip-path:url(#SVGID_00000143608063772981877060000009926086812917741713_);fill:none;stroke:#000000;stroke-width:1.07;stroke-linejoin:round;stroke-miterlimit:10;}
	
		.st25{clip-path:url(#SVGID_00000143608063772981877060000009926086812917741713_);fill:none;stroke:#000000;stroke-width:1.07;stroke-linejoin:round;stroke-miterlimit:10;stroke-dasharray:4.27,4.27;}
	.st26{fill:#4D4D4D;}
	.st27{font-size:6.3026px;}
	.st28{fill:none;stroke:#000000;stroke-width:1.07;stroke-linejoin:round;stroke-miterlimit:10;}
	.st29{font-size:7.7812px;}
	.st30{fill:#FFA500;}
	.st31{fill:#33A02C;}
	.st32{fill:none;stroke:#474444;stroke-width:0.71;stroke-linecap:round;stroke-linejoin:round;stroke-miterlimit:10;}
	.st33{fill:none;stroke:#DF546C;stroke-width:0.71;stroke-linecap:round;stroke-linejoin:round;stroke-miterlimit:10;}
	.st34{fill:#8C008C;}
</style>
<rect x="55.6" y="6" class="st0" width="480" height="289.7"/>
<rect x="55.6" y="6" class="st0" width="16.2" height="16.2"/>
<text transform="matrix(1 0 0 1 60.209 17.9969)" class="st1 st2 st3">A</text>
<g>
	<defs>
		<rect id="SVGID_1_" x="85.7" y="34.2" width="200.9" height="200.9"/>
	</defs>
	<clipPath id="SVGID_00000020362876642430891370000011117102212525488019_">
		<use xlink:href="#SVGID_1_"  style="overflow:visible;"/>
	</clipPath>
	
		<rect x="85.7" y="34.2" style="clip-path:url(#SVGID_00000020362876642430891370000011117102212525488019_);fill:#FFFFFF;" width="200.9" height="200.9"/>
	
		<line style="clip-path:url(#SVGID_00000020362876642430891370000011117102212525488019_);fill:none;stroke:#D9D9D9;stroke-width:0.53;stroke-linejoin:round;stroke-miterlimit:10;stroke-dasharray:2.13,2.13;" x1="85.7" y1="221.9" x2="286.6" y2="221.9"/>
	
		<line style="clip-path:url(#SVGID_00000020362876642430891370000011117102212525488019_);fill:none;stroke:#D9D9D9;stroke-width:0.53;stroke-linejoin:round;stroke-miterlimit:10;stroke-dasharray:2.13,2.13;" x1="85.7" y1="184.8" x2="286.6" y2="184.8"/>
	
		<line style="clip-path:url(#SVGID_00000020362876642430891370000011117102212525488019_);fill:none;stroke:#D9D9D9;stroke-width:0.53;stroke-linejoin:round;stroke-miterlimit:10;stroke-dasharray:2.13,2.13;" x1="85.7" y1="147.7" x2="286.6" y2="147.7"/>
	
		<line style="clip-path:url(#SVGID_00000020362876642430891370000011117102212525488019_);fill:none;stroke:#D9D9D9;stroke-width:0.53;stroke-linejoin:round;stroke-miterlimit:10;stroke-dasharray:2.13,2.13;" x1="85.7" y1="110.6" x2="286.6" y2="110.6"/>
	
		<line style="clip-path:url(#SVGID_00000020362876642430891370000011117102212525488019_);fill:none;stroke:#D9D9D9;stroke-width:0.53;stroke-linejoin:round;stroke-miterlimit:10;stroke-dasharray:2.13,2.13;" x1="85.7" y1="73.5" x2="286.6" y2="73.5"/>
	
		<line style="clip-path:url(#SVGID_00000020362876642430891370000011117102212525488019_);fill:none;stroke:#D9D9D9;stroke-width:0.53;stroke-linejoin:round;stroke-miterlimit:10;stroke-dasharray:2.13,2.13;" x1="85.7" y1="36.4" x2="286.6" y2="36.4"/>
	
		<line style="clip-path:url(#SVGID_00000020362876642430891370000011117102212525488019_);fill:none;stroke:#D9D9D9;stroke-width:0.53;stroke-linejoin:round;stroke-miterlimit:10;stroke-dasharray:2.13,2.13;" x1="96.6" y1="235.1" x2="96.6" y2="34.2"/>
	
		<line style="clip-path:url(#SVGID_00000020362876642430891370000011117102212525488019_);fill:none;stroke:#D9D9D9;stroke-width:0.53;stroke-linejoin:round;stroke-miterlimit:10;stroke-dasharray:2.13,2.13;" x1="131.8" y1="235.1" x2="131.8" y2="34.2"/>
	
		<line style="clip-path:url(#SVGID_00000020362876642430891370000011117102212525488019_);fill:none;stroke:#D9D9D9;stroke-width:0.53;stroke-linejoin:round;stroke-miterlimit:10;stroke-dasharray:2.13,2.13;" x1="167.1" y1="235.1" x2="167.1" y2="34.2"/>
	
		<line style="clip-path:url(#SVGID_00000020362876642430891370000011117102212525488019_);fill:none;stroke:#D9D9D9;stroke-width:0.53;stroke-linejoin:round;stroke-miterlimit:10;stroke-dasharray:2.13,2.13;" x1="202.4" y1="235.1" x2="202.4" y2="34.2"/>
	
		<line style="clip-path:url(#SVGID_00000020362876642430891370000011117102212525488019_);fill:none;stroke:#D9D9D9;stroke-width:0.53;stroke-linejoin:round;stroke-miterlimit:10;stroke-dasharray:2.13,2.13;" x1="237.6" y1="235.1" x2="237.6" y2="34.2"/>
	
		<line style="clip-path:url(#SVGID_00000020362876642430891370000011117102212525488019_);fill:none;stroke:#D9D9D9;stroke-width:0.53;stroke-linejoin:round;stroke-miterlimit:10;stroke-dasharray:2.13,2.13;" x1="272.9" y1="235.1" x2="272.9" y2="34.2"/>
	
		<rect x="98.2" y="83" style="clip-path:url(#SVGID_00000020362876642430891370000011117102212525488019_);fill:#FFA500;" width="5.2" height="5.2"/>
	
		<rect x="232.2" y="96.8" style="clip-path:url(#SVGID_00000020362876642430891370000011117102212525488019_);fill:#FFA500;" width="5.2" height="5.2"/>
	
		<rect x="241.4" y="89.6" style="clip-path:url(#SVGID_00000020362876642430891370000011117102212525488019_);fill:#FFA500;" width="5.2" height="5.2"/>
	
		<rect x="249.4" y="104.4" style="clip-path:url(#SVGID_00000020362876642430891370000011117102212525488019_);fill:#FFA500;" width="5.2" height="5.2"/>
	
		<rect x="255.8" y="96.1" style="clip-path:url(#SVGID_00000020362876642430891370000011117102212525488019_);fill:#FFA500;" width="5.2" height="5.2"/>
	
		<rect x="274.9" y="66.8" style="clip-path:url(#SVGID_00000020362876642430891370000011117102212525488019_);fill:#FFA500;" width="5.2" height="5.2"/>
	
		<rect x="268.2" y="104.2" style="clip-path:url(#SVGID_00000020362876642430891370000011117102212525488019_);fill:#FFA500;" width="5.2" height="5.2"/>
	
		<rect x="229.2" y="142.8" style="clip-path:url(#SVGID_00000020362876642430891370000011117102212525488019_);fill:#FFA500;" width="5.2" height="5.2"/>
	<path style="clip-path:url(#SVGID_00000020362876642430891370000011117102212525488019_);fill:#33A02C;" d="M253.3,119.6
		c0-1.4,1.2-2.6,2.6-2.6c1.4,0,2.6,1.2,2.6,2.6c0,1.4-1.2,2.6-2.6,2.6C254.4,122.2,253.3,121,253.3,119.6"/>
	<path style="clip-path:url(#SVGID_00000020362876642430891370000011117102212525488019_);fill:#33A02C;" d="M216.6,153
		c0-1.4,1.2-2.6,2.6-2.6c1.4,0,2.6,1.2,2.6,2.6c0,1.4-1.2,2.6-2.6,2.6C217.8,155.6,216.6,154.5,216.6,153"/>
	<path style="clip-path:url(#SVGID_00000020362876642430891370000011117102212525488019_);fill:#33A02C;" d="M193.4,140.8
		c0-1.4,1.2-2.6,2.6-2.6c1.4,0,2.6,1.2,2.6,2.6c0,1.4-1.2,2.6-2.6,2.6C194.6,143.4,193.4,142.3,193.4,140.8"/>
	
		<path style="clip-path:url(#SVGID_00000020362876642430891370000011117102212525488019_);fill:none;stroke:#474444;stroke-width:0.71;stroke-linecap:round;stroke-linejoin:round;stroke-miterlimit:10;" d="
		M191.5,117.1c0-1.4,1.2-2.6,2.6-2.6c1.4,0,2.6,1.2,2.6,2.6c0,1.4-1.2,2.6-2.6,2.6C192.7,119.8,191.5,118.6,191.5,117.1"/>
	
		<path style="clip-path:url(#SVGID_00000020362876642430891370000011117102212525488019_);fill:none;stroke:#474444;stroke-width:0.71;stroke-linecap:round;stroke-linejoin:round;stroke-miterlimit:10;" d="
		M184.4,43.3c0-1.4,1.2-2.6,2.6-2.6c1.4,0,2.6,1.2,2.6,2.6c0,1.4-1.2,2.6-2.6,2.6C185.6,45.9,184.4,44.7,184.4,43.3"/>
	
		<path style="clip-path:url(#SVGID_00000020362876642430891370000011117102212525488019_);fill:none;stroke:#474444;stroke-width:0.71;stroke-linecap:round;stroke-linejoin:round;stroke-miterlimit:10;" d="
		M212,128.1c0-1.4,1.2-2.6,2.6-2.6c1.4,0,2.6,1.2,2.6,2.6c0,1.4-1.2,2.6-2.6,2.6C213.2,130.7,212,129.6,212,128.1"/>
	
		<path style="clip-path:url(#SVGID_00000020362876642430891370000011117102212525488019_);fill:none;stroke:#474444;stroke-width:0.71;stroke-linecap:round;stroke-linejoin:round;stroke-miterlimit:10;" d="
		M225.3,167c0-1.4,1.2-2.6,2.6-2.6c1.4,0,2.6,1.2,2.6,2.6s-1.2,2.6-2.6,2.6C226.5,169.6,225.3,168.4,225.3,167"/>
	
		<path style="clip-path:url(#SVGID_00000020362876642430891370000011117102212525488019_);fill:none;stroke:#474444;stroke-width:0.71;stroke-linecap:round;stroke-linejoin:round;stroke-miterlimit:10;" d="
		M178.4,126.1c0-1.4,1.2-2.6,2.6-2.6c1.4,0,2.6,1.2,2.6,2.6c0,1.4-1.2,2.6-2.6,2.6C179.6,128.7,178.4,127.6,178.4,126.1"/>
	
		<path style="clip-path:url(#SVGID_00000020362876642430891370000011117102212525488019_);fill:none;stroke:#474444;stroke-width:0.71;stroke-linecap:round;stroke-linejoin:round;stroke-miterlimit:10;" d="
		M227.1,144.7c0-1.4,1.2-2.6,2.6-2.6c1.4,0,2.6,1.2,2.6,2.6c0,1.4-1.2,2.6-2.6,2.6C228.3,147.3,227.1,146.1,227.1,144.7"/>
	
		<path style="clip-path:url(#SVGID_00000020362876642430891370000011117102212525488019_);fill:none;stroke:#474444;stroke-width:0.71;stroke-linecap:round;stroke-linejoin:round;stroke-miterlimit:10;" d="
		M180.3,165.5c0-1.4,1.2-2.6,2.6-2.6s2.6,1.2,2.6,2.6c0,1.4-1.2,2.6-2.6,2.6S180.3,166.9,180.3,165.5"/>
	
		<path style="clip-path:url(#SVGID_00000020362876642430891370000011117102212525488019_);fill:none;stroke:#474444;stroke-width:0.71;stroke-linecap:round;stroke-linejoin:round;stroke-miterlimit:10;" d="
		M182.6,182.4c0-1.4,1.2-2.6,2.6-2.6c1.4,0,2.6,1.2,2.6,2.6c0,1.4-1.2,2.6-2.6,2.6C183.8,185,182.6,183.8,182.6,182.4"/>
	
		<path style="clip-path:url(#SVGID_00000020362876642430891370000011117102212525488019_);fill:none;stroke:#474444;stroke-width:0.71;stroke-linecap:round;stroke-linejoin:round;stroke-miterlimit:10;" d="
		M188.3,152.2c0-1.4,1.2-2.6,2.6-2.6c1.4,0,2.6,1.2,2.6,2.6c0,1.4-1.2,2.6-2.6,2.6C189.5,154.8,188.3,153.6,188.3,152.2"/>
	
		<path style="clip-path:url(#SVGID_00000020362876642430891370000011117102212525488019_);fill:none;stroke:#474444;stroke-width:0.71;stroke-linecap:round;stroke-linejoin:round;stroke-miterlimit:10;" d="
		M180.9,158.6c0-1.4,1.2-2.6,2.6-2.6c1.4,0,2.6,1.2,2.6,2.6c0,1.4-1.2,2.6-2.6,2.6C182.1,161.3,180.9,160.1,180.9,158.6"/>
	
		<path style="clip-path:url(#SVGID_00000020362876642430891370000011117102212525488019_);fill:none;stroke:#474444;stroke-width:0.71;stroke-linecap:round;stroke-linejoin:round;stroke-miterlimit:10;" d="
		M206.7,132.9c0-1.4,1.2-2.6,2.6-2.6c1.4,0,2.6,1.2,2.6,2.6c0,1.4-1.2,2.6-2.6,2.6C207.9,135.5,206.7,134.4,206.7,132.9"/>
	
		<path style="clip-path:url(#SVGID_00000020362876642430891370000011117102212525488019_);fill:none;stroke:#474444;stroke-width:0.71;stroke-linecap:round;stroke-linejoin:round;stroke-miterlimit:10;" d="
		M250,149.1c0-1.4,1.2-2.6,2.6-2.6c1.4,0,2.6,1.2,2.6,2.6c0,1.4-1.2,2.6-2.6,2.6C251.2,151.7,250,150.6,250,149.1"/>
	
		<path style="clip-path:url(#SVGID_00000020362876642430891370000011117102212525488019_);fill:none;stroke:#474444;stroke-width:0.71;stroke-linecap:round;stroke-linejoin:round;stroke-miterlimit:10;" d="
		M217.8,116.5c0-1.4,1.2-2.6,2.6-2.6c1.4,0,2.6,1.2,2.6,2.6c0,1.4-1.2,2.6-2.6,2.6C218.9,119.2,217.8,118,217.8,116.5"/>
	
		<path style="clip-path:url(#SVGID_00000020362876642430891370000011117102212525488019_);fill:none;stroke:#474444;stroke-width:0.71;stroke-linecap:round;stroke-linejoin:round;stroke-miterlimit:10;" d="
		M213.4,103.5c0-1.4,1.2-2.6,2.6-2.6c1.4,0,2.6,1.2,2.6,2.6c0,1.4-1.2,2.6-2.6,2.6C214.6,106.1,213.4,104.9,213.4,103.5"/>
	
		<path style="clip-path:url(#SVGID_00000020362876642430891370000011117102212525488019_);fill:none;stroke:#474444;stroke-width:0.71;stroke-linecap:round;stroke-linejoin:round;stroke-miterlimit:10;" d="
		M200.9,127c0-1.4,1.2-2.6,2.6-2.6c1.4,0,2.6,1.2,2.6,2.6c0,1.4-1.2,2.6-2.6,2.6C202,129.6,200.9,128.5,200.9,127"/>
	
		<path style="clip-path:url(#SVGID_00000020362876642430891370000011117102212525488019_);fill:none;stroke:#474444;stroke-width:0.71;stroke-linecap:round;stroke-linejoin:round;stroke-miterlimit:10;" d="
		M131.9,143.3c0-1.4,1.2-2.6,2.6-2.6c1.4,0,2.6,1.2,2.6,2.6c0,1.4-1.2,2.6-2.6,2.6C133.1,145.9,131.9,144.8,131.9,143.3"/>
	
		<path style="clip-path:url(#SVGID_00000020362876642430891370000011117102212525488019_);fill:none;stroke:#474444;stroke-width:0.71;stroke-linecap:round;stroke-linejoin:round;stroke-miterlimit:10;" d="
		M174.4,142.1c0-1.4,1.2-2.6,2.6-2.6c1.4,0,2.6,1.2,2.6,2.6c0,1.4-1.2,2.6-2.6,2.6C175.6,144.7,174.4,143.6,174.4,142.1"/>
	
		<path style="clip-path:url(#SVGID_00000020362876642430891370000011117102212525488019_);fill:none;stroke:#474444;stroke-width:0.71;stroke-linecap:round;stroke-linejoin:round;stroke-miterlimit:10;" d="
		M178.8,167.8c0-1.4,1.2-2.6,2.6-2.6c1.4,0,2.6,1.2,2.6,2.6c0,1.4-1.2,2.6-2.6,2.6C180,170.4,178.8,169.2,178.8,167.8"/>
	
		<path style="clip-path:url(#SVGID_00000020362876642430891370000011117102212525488019_);fill:none;stroke:#474444;stroke-width:0.71;stroke-linecap:round;stroke-linejoin:round;stroke-miterlimit:10;" d="
		M135.3,149.4c0-1.4,1.2-2.6,2.6-2.6c1.4,0,2.6,1.2,2.6,2.6c0,1.4-1.2,2.6-2.6,2.6C136.5,152,135.3,150.8,135.3,149.4"/>
	
		<path style="clip-path:url(#SVGID_00000020362876642430891370000011117102212525488019_);fill:none;stroke:#474444;stroke-width:0.71;stroke-linecap:round;stroke-linejoin:round;stroke-miterlimit:10;" d="
		M218.9,145.6c0-1.4,1.2-2.6,2.6-2.6c1.4,0,2.6,1.2,2.6,2.6c0,1.4-1.2,2.6-2.6,2.6C220.1,148.2,218.9,147,218.9,145.6"/>
	<path style="clip-path:url(#SVGID_00000020362876642430891370000011117102212525488019_);fill:#33A02C;" d="M185.3,131.5
		c0-1.4,1.2-2.6,2.6-2.6c1.4,0,2.6,1.2,2.6,2.6c0,1.4-1.2,2.6-2.6,2.6C186.5,134.1,185.3,132.9,185.3,131.5"/>
	<path style="clip-path:url(#SVGID_00000020362876642430891370000011117102212525488019_);fill:#33A02C;" d="M183.5,159.3
		c0-1.4,1.2-2.6,2.6-2.6c1.4,0,2.6,1.2,2.6,2.6c0,1.4-1.2,2.6-2.6,2.6C184.6,161.9,183.5,160.7,183.5,159.3"/>
	<polygon style="clip-path:url(#SVGID_00000020362876642430891370000011117102212525488019_);fill:#8C008C;" points="109.8,164.3 
		113.3,170.4 106.3,170.4 	"/>
	<polygon style="clip-path:url(#SVGID_00000020362876642430891370000011117102212525488019_);fill:#8C008C;" points="94.9,139.3 
		98.4,145.4 91.4,145.4 	"/>
	<polygon style="clip-path:url(#SVGID_00000020362876642430891370000011117102212525488019_);fill:#8C008C;" points="132.5,153 
		136,159.1 129,159.1 	"/>
	<polygon style="clip-path:url(#SVGID_00000020362876642430891370000011117102212525488019_);fill:#8C008C;" points="118.8,163.1 
		122.3,169.2 115.3,169.2 	"/>
	<polygon style="clip-path:url(#SVGID_00000020362876642430891370000011117102212525488019_);fill:#8C008C;" points="142,166.2 
		145.5,172.3 138.4,172.3 	"/>
	<polygon style="clip-path:url(#SVGID_00000020362876642430891370000011117102212525488019_);fill:#8C008C;" points="94.8,158.1 
		98.3,164.2 91.3,164.2 	"/>
	
		<line style="clip-path:url(#SVGID_00000020362876642430891370000011117102212525488019_);fill:none;stroke:#DF546C;stroke-width:0.71;stroke-linecap:round;stroke-linejoin:round;stroke-miterlimit:10;" x1="235.7" y1="156.8" x2="240.9" y2="151.6"/>
	
		<line style="clip-path:url(#SVGID_00000020362876642430891370000011117102212525488019_);fill:none;stroke:#DF546C;stroke-width:0.71;stroke-linecap:round;stroke-linejoin:round;stroke-miterlimit:10;" x1="235.7" y1="151.6" x2="240.9" y2="156.8"/>
	
		<line style="clip-path:url(#SVGID_00000020362876642430891370000011117102212525488019_);fill:none;stroke:#DF546C;stroke-width:0.71;stroke-linecap:round;stroke-linejoin:round;stroke-miterlimit:10;" x1="268" y1="206.2" x2="273.3" y2="201"/>
	
		<line style="clip-path:url(#SVGID_00000020362876642430891370000011117102212525488019_);fill:none;stroke:#DF546C;stroke-width:0.71;stroke-linecap:round;stroke-linejoin:round;stroke-miterlimit:10;" x1="268" y1="201" x2="273.3" y2="206.2"/>
	
		<line style="clip-path:url(#SVGID_00000020362876642430891370000011117102212525488019_);fill:none;stroke:#DF546C;stroke-width:0.71;stroke-linecap:round;stroke-linejoin:round;stroke-miterlimit:10;" x1="241.9" y1="207" x2="247.1" y2="201.8"/>
	
		<line style="clip-path:url(#SVGID_00000020362876642430891370000011117102212525488019_);fill:none;stroke:#DF546C;stroke-width:0.71;stroke-linecap:round;stroke-linejoin:round;stroke-miterlimit:10;" x1="241.9" y1="201.8" x2="247.1" y2="207"/>
	
		<line style="clip-path:url(#SVGID_00000020362876642430891370000011117102212525488019_);fill:none;stroke:#DF546C;stroke-width:0.71;stroke-linecap:round;stroke-linejoin:round;stroke-miterlimit:10;" x1="230.3" y1="207" x2="235.5" y2="201.8"/>
	
		<line style="clip-path:url(#SVGID_00000020362876642430891370000011117102212525488019_);fill:none;stroke:#DF546C;stroke-width:0.71;stroke-linecap:round;stroke-linejoin:round;stroke-miterlimit:10;" x1="230.3" y1="201.8" x2="235.5" y2="207"/>
	
		<line style="clip-path:url(#SVGID_00000020362876642430891370000011117102212525488019_);fill:none;stroke:#DF546C;stroke-width:0.71;stroke-linecap:round;stroke-linejoin:round;stroke-miterlimit:10;" x1="243.7" y1="222.2" x2="248.9" y2="216.9"/>
	
		<line style="clip-path:url(#SVGID_00000020362876642430891370000011117102212525488019_);fill:none;stroke:#DF546C;stroke-width:0.71;stroke-linecap:round;stroke-linejoin:round;stroke-miterlimit:10;" x1="243.7" y1="216.9" x2="248.9" y2="222.2"/>
	
		<line style="clip-path:url(#SVGID_00000020362876642430891370000011117102212525488019_);fill:none;stroke:#DF546C;stroke-width:0.71;stroke-linecap:round;stroke-linejoin:round;stroke-miterlimit:10;" x1="221.4" y1="182.4" x2="226.6" y2="177.2"/>
	
		<line style="clip-path:url(#SVGID_00000020362876642430891370000011117102212525488019_);fill:none;stroke:#DF546C;stroke-width:0.71;stroke-linecap:round;stroke-linejoin:round;stroke-miterlimit:10;" x1="221.4" y1="177.2" x2="226.6" y2="182.4"/>
	
		<line style="clip-path:url(#SVGID_00000020362876642430891370000011117102212525488019_);fill:none;stroke:#DF546C;stroke-width:0.71;stroke-linecap:round;stroke-linejoin:round;stroke-miterlimit:10;" x1="224.3" y1="185.1" x2="229.5" y2="179.9"/>
	
		<line style="clip-path:url(#SVGID_00000020362876642430891370000011117102212525488019_);fill:none;stroke:#DF546C;stroke-width:0.71;stroke-linecap:round;stroke-linejoin:round;stroke-miterlimit:10;" x1="224.3" y1="179.9" x2="229.5" y2="185.1"/>
	
		<line style="clip-path:url(#SVGID_00000020362876642430891370000011117102212525488019_);fill:none;stroke:#DF546C;stroke-width:0.71;stroke-linecap:round;stroke-linejoin:round;stroke-miterlimit:10;" x1="237.7" y1="225.4" x2="242.9" y2="220.2"/>
	
		<line style="clip-path:url(#SVGID_00000020362876642430891370000011117102212525488019_);fill:none;stroke:#DF546C;stroke-width:0.71;stroke-linecap:round;stroke-linejoin:round;stroke-miterlimit:10;" x1="237.7" y1="220.2" x2="242.9" y2="225.4"/>
	
		<line style="clip-path:url(#SVGID_00000020362876642430891370000011117102212525488019_);fill:none;stroke:#DF546C;stroke-width:0.71;stroke-linecap:round;stroke-linejoin:round;stroke-miterlimit:10;" x1="233.6" y1="228.5" x2="238.8" y2="223.3"/>
	
		<line style="clip-path:url(#SVGID_00000020362876642430891370000011117102212525488019_);fill:none;stroke:#DF546C;stroke-width:0.71;stroke-linecap:round;stroke-linejoin:round;stroke-miterlimit:10;" x1="233.6" y1="223.3" x2="238.8" y2="228.5"/>
	
		<line style="clip-path:url(#SVGID_00000020362876642430891370000011117102212525488019_);fill:none;stroke:#DF546C;stroke-width:0.71;stroke-linecap:round;stroke-linejoin:round;stroke-miterlimit:10;" x1="213.8" y1="203.2" x2="219" y2="198"/>
	
		<line style="clip-path:url(#SVGID_00000020362876642430891370000011117102212525488019_);fill:none;stroke:#DF546C;stroke-width:0.71;stroke-linecap:round;stroke-linejoin:round;stroke-miterlimit:10;" x1="213.8" y1="198" x2="219" y2="203.2"/>
	
		<rect x="85.7" y="34.2" style="clip-path:url(#SVGID_00000020362876642430891370000011117102212525488019_);fill:none;stroke:#F0F0F0;stroke-width:1.16;stroke-linecap:round;stroke-linejoin:round;stroke-miterlimit:10;" width="200.9" height="200.9"/>
</g>
<line class="st12" x1="85.7" y1="235.1" x2="85.7" y2="34.2"/>
<text transform="matrix(1 0 0 1 74.2124 224.2834)" class="st13 st14 st15">−2</text>
<text transform="matrix(1 0 0 1 74.2124 187.1799)" class="st13 st14 st15">−1</text>
<text transform="matrix(1 0 0 1 78.0757 150.069)" class="st13 st14 st15">0</text>
<text transform="matrix(1 0 0 1 78.0757 112.9675)" class="st13 st14 st15">1</text>
<text transform="matrix(1 0 0 1 78.0757 75.864)" class="st13 st14 st15">2</text>
<text transform="matrix(1 0 0 1 78.0757 38.7614)" class="st13 st14 st15">3</text>
<line class="st12" x1="83.5" y1="221.9" x2="85.7" y2="221.9"/>
<line class="st12" x1="83.5" y1="184.8" x2="85.7" y2="184.8"/>
<line class="st12" x1="83.5" y1="147.7" x2="85.7" y2="147.7"/>
<line class="st12" x1="83.5" y1="110.6" x2="85.7" y2="110.6"/>
<line class="st12" x1="83.5" y1="73.5" x2="85.7" y2="73.5"/>
<line class="st12" x1="83.5" y1="36.4" x2="85.7" y2="36.4"/>
<line class="st12" x1="85.7" y1="235.1" x2="286.6" y2="235.1"/>
<line class="st12" x1="96.6" y1="237.3" x2="96.6" y2="235.1"/>
<line class="st12" x1="131.8" y1="237.3" x2="131.8" y2="235.1"/>
<line class="st12" x1="167.1" y1="237.3" x2="167.1" y2="235.1"/>
<line class="st12" x1="202.4" y1="237.3" x2="202.4" y2="235.1"/>
<line class="st12" x1="237.6" y1="237.3" x2="237.6" y2="235.1"/>
<line class="st12" x1="272.9" y1="237.3" x2="272.9" y2="235.1"/>
<text transform="matrix(1 0 0 1 92.7964 243.7614)" class="st13 st14 st15">−3</text>
<text transform="matrix(1 0 0 1 128.0625 243.7614)" class="st13 st14 st15">−2</text>
<text transform="matrix(1 0 0 1 163.3291 243.7614)" class="st13 st14 st15">−1</text>
<text transform="matrix(1 0 0 1 200.5195 243.7614)" class="st13 st14 st15">0</text>
<text transform="matrix(1 0 0 1 235.7861 243.7614)" class="st13 st14 st15">1</text>
<text transform="matrix(1 0 0 1 271.0527 243.7614)" class="st13 st14 st15">2</text>
<text transform="matrix(1 0 0 1 153.082 259.6774)" class="st14 st16">PCA1 ( 62.52 %)</text>
<text transform="matrix(-6.123234e-17 -1 1 -6.123234e-17 67.0498 171.6212)" class="st14 st16">PCA2 ( 37.48 %)</text>
<text transform="matrix(1 0 0 1 76.8008 20.0923)" class="st14 st17">Mouth dimensions </text>
<g>
	<defs>
		<rect id="SVGID_00000024723958224695730210000014805488454903997093_" x="330" y="49.2" width="191.5" height="191.5"/>
	</defs>
	<clipPath id="SVGID_00000022541209655693214470000015339212308653027493_">
		<use xlink:href="#SVGID_00000024723958224695730210000014805488454903997093_"  style="overflow:visible;"/>
	</clipPath>
	
		<line style="clip-path:url(#SVGID_00000022541209655693214470000015339212308653027493_);fill:none;stroke:#EBEBEB;stroke-width:0.53;stroke-linejoin:round;stroke-miterlimit:10;" x1="330" y1="235.6" x2="521.5" y2="235.6"/>
	
		<line style="clip-path:url(#SVGID_00000022541209655693214470000015339212308653027493_);fill:none;stroke:#EBEBEB;stroke-width:0.53;stroke-linejoin:round;stroke-miterlimit:10;" x1="330" y1="199.3" x2="521.5" y2="199.3"/>
	
		<line style="clip-path:url(#SVGID_00000022541209655693214470000015339212308653027493_);fill:none;stroke:#EBEBEB;stroke-width:0.53;stroke-linejoin:round;stroke-miterlimit:10;" x1="330" y1="163.1" x2="521.5" y2="163.1"/>
	
		<line style="clip-path:url(#SVGID_00000022541209655693214470000015339212308653027493_);fill:none;stroke:#EBEBEB;stroke-width:0.53;stroke-linejoin:round;stroke-miterlimit:10;" x1="330" y1="126.8" x2="521.5" y2="126.8"/>
	
		<line style="clip-path:url(#SVGID_00000022541209655693214470000015339212308653027493_);fill:none;stroke:#EBEBEB;stroke-width:0.53;stroke-linejoin:round;stroke-miterlimit:10;" x1="330" y1="90.5" x2="521.5" y2="90.5"/>
	
		<line style="clip-path:url(#SVGID_00000022541209655693214470000015339212308653027493_);fill:none;stroke:#EBEBEB;stroke-width:0.53;stroke-linejoin:round;stroke-miterlimit:10;" x1="330" y1="54.2" x2="521.5" y2="54.2"/>
	
		<line style="clip-path:url(#SVGID_00000022541209655693214470000015339212308653027493_);fill:none;stroke:#EBEBEB;stroke-width:0.53;stroke-linejoin:round;stroke-miterlimit:10;" x1="335.1" y1="240.7" x2="335.1" y2="49.2"/>
	
		<line style="clip-path:url(#SVGID_00000022541209655693214470000015339212308653027493_);fill:none;stroke:#EBEBEB;stroke-width:0.53;stroke-linejoin:round;stroke-miterlimit:10;" x1="371.4" y1="240.7" x2="371.4" y2="49.2"/>
	
		<line style="clip-path:url(#SVGID_00000022541209655693214470000015339212308653027493_);fill:none;stroke:#EBEBEB;stroke-width:0.53;stroke-linejoin:round;stroke-miterlimit:10;" x1="407.6" y1="240.7" x2="407.6" y2="49.2"/>
	
		<line style="clip-path:url(#SVGID_00000022541209655693214470000015339212308653027493_);fill:none;stroke:#EBEBEB;stroke-width:0.53;stroke-linejoin:round;stroke-miterlimit:10;" x1="443.9" y1="240.7" x2="443.9" y2="49.2"/>
	
		<line style="clip-path:url(#SVGID_00000022541209655693214470000015339212308653027493_);fill:none;stroke:#EBEBEB;stroke-width:0.53;stroke-linejoin:round;stroke-miterlimit:10;" x1="480.2" y1="240.7" x2="480.2" y2="49.2"/>
	
		<line style="clip-path:url(#SVGID_00000022541209655693214470000015339212308653027493_);fill:none;stroke:#EBEBEB;stroke-width:0.53;stroke-linejoin:round;stroke-miterlimit:10;" x1="516.5" y1="240.7" x2="516.5" y2="49.2"/>
	
		<line style="clip-path:url(#SVGID_00000022541209655693214470000015339212308653027493_);fill:none;stroke:#EBEBEB;stroke-width:1.07;stroke-linejoin:round;stroke-miterlimit:10;" x1="330" y1="217.5" x2="521.5" y2="217.5"/>
	
		<line style="clip-path:url(#SVGID_00000022541209655693214470000015339212308653027493_);fill:none;stroke:#EBEBEB;stroke-width:1.07;stroke-linejoin:round;stroke-miterlimit:10;" x1="330" y1="181.2" x2="521.5" y2="181.2"/>
	
		<line style="clip-path:url(#SVGID_00000022541209655693214470000015339212308653027493_);fill:none;stroke:#EBEBEB;stroke-width:1.07;stroke-linejoin:round;stroke-miterlimit:10;" x1="330" y1="144.9" x2="521.5" y2="144.9"/>
	
		<line style="clip-path:url(#SVGID_00000022541209655693214470000015339212308653027493_);fill:none;stroke:#EBEBEB;stroke-width:1.07;stroke-linejoin:round;stroke-miterlimit:10;" x1="330" y1="108.7" x2="521.5" y2="108.7"/>
	
		<line style="clip-path:url(#SVGID_00000022541209655693214470000015339212308653027493_);fill:none;stroke:#EBEBEB;stroke-width:1.07;stroke-linejoin:round;stroke-miterlimit:10;" x1="330" y1="72.4" x2="521.5" y2="72.4"/>
	
		<line style="clip-path:url(#SVGID_00000022541209655693214470000015339212308653027493_);fill:none;stroke:#EBEBEB;stroke-width:1.07;stroke-linejoin:round;stroke-miterlimit:10;" x1="353.2" y1="240.7" x2="353.2" y2="49.2"/>
	
		<line style="clip-path:url(#SVGID_00000022541209655693214470000015339212308653027493_);fill:none;stroke:#EBEBEB;stroke-width:1.07;stroke-linejoin:round;stroke-miterlimit:10;" x1="389.5" y1="240.7" x2="389.5" y2="49.2"/>
	
		<line style="clip-path:url(#SVGID_00000022541209655693214470000015339212308653027493_);fill:none;stroke:#EBEBEB;stroke-width:1.07;stroke-linejoin:round;stroke-miterlimit:10;" x1="425.8" y1="240.7" x2="425.8" y2="49.2"/>
	
		<line style="clip-path:url(#SVGID_00000022541209655693214470000015339212308653027493_);fill:none;stroke:#EBEBEB;stroke-width:1.07;stroke-linejoin:round;stroke-miterlimit:10;" x1="462" y1="240.7" x2="462" y2="49.2"/>
	
		<line style="clip-path:url(#SVGID_00000022541209655693214470000015339212308653027493_);fill:none;stroke:#EBEBEB;stroke-width:1.07;stroke-linejoin:round;stroke-miterlimit:10;" x1="498.3" y1="240.7" x2="498.3" y2="49.2"/>
	<g style="clip-path:url(#SVGID_00000022541209655693214470000015339212308653027493_);">
		<text transform="matrix(1 0 0 1 343.4033 195.0417)" class="st21 st22 st23">Height</text>
	</g>
	<g style="clip-path:url(#SVGID_00000022541209655693214470000015339212308653027493_);">
		<text transform="matrix(1 0 0 1 373.6318 75.7028)" class="st21 st22 st23">Width</text>
	</g>
	<g style="clip-path:url(#SVGID_00000022541209655693214470000015339212308653027493_);">
		<text transform="matrix(1 0 0 1 459.7783 157.4001)" class="st21 st22 st23">Protrusion</text>
	</g>
	
		<line style="clip-path:url(#SVGID_00000022541209655693214470000015339212308653027493_);fill:none;stroke:#000000;stroke-width:1.07;stroke-linejoin:round;stroke-miterlimit:10;" x1="425.8" y1="144.9" x2="367.6" y2="188.2"/>
	
		<polyline style="clip-path:url(#SVGID_00000022541209655693214470000015339212308653027493_);fill:none;stroke:#000000;stroke-width:1.07;stroke-linejoin:round;stroke-miterlimit:10;" points="
		369.1,184.6 367.6,188.2 371.5,187.8 	"/>
	
		<line style="clip-path:url(#SVGID_00000022541209655693214470000015339212308653027493_);fill:none;stroke:#000000;stroke-width:1.07;stroke-linejoin:round;stroke-miterlimit:10;" x1="425.8" y1="144.9" x2="390.6" y2="81.5"/>
	
		<polyline style="clip-path:url(#SVGID_00000022541209655693214470000015339212308653027493_);fill:none;stroke:#000000;stroke-width:1.07;stroke-linejoin:round;stroke-miterlimit:10;" points="
		394,83.5 390.6,81.5 390.5,85.4 	"/>
	
		<line style="clip-path:url(#SVGID_00000022541209655693214470000015339212308653027493_);fill:none;stroke:#000000;stroke-width:1.07;stroke-linejoin:round;stroke-miterlimit:10;" x1="425.8" y1="144.9" x2="498.2" y2="148.9"/>
	
		<polyline style="clip-path:url(#SVGID_00000022541209655693214470000015339212308653027493_);fill:none;stroke:#000000;stroke-width:1.07;stroke-linejoin:round;stroke-miterlimit:10;" points="
		494.7,150.7 498.2,148.9 494.9,146.7 	"/>
	
		<polyline style="clip-path:url(#SVGID_00000022541209655693214470000015339212308653027493_);fill:none;stroke:#000000;stroke-width:1.07;stroke-linejoin:round;stroke-miterlimit:10;" points="
		353.2,144.9 353.8,154.2 355.6,163.3 358.5,172.2 362.6,180.5 367.6,188.3 373.7,195.4 380.5,201.7 388.2,207 396.4,211.3 
		405.1,214.5 414.2,216.5 423.4,217.4 432.7,217.1 441.9,215.7 450.8,213 459.3,209.2 467.3,204.4 474.5,198.6 481,192 486.6,184.5 
		491.1,176.4 494.6,167.8 497,158.8 498.2,149.6 498.2,140.3 497,131.1 494.6,122.1 491.1,113.4 486.6,105.4 481,97.9 474.5,91.2 
		467.3,85.4 459.3,80.6 450.8,76.8 441.9,74.2 432.7,72.7 423.4,72.4 414.2,73.3 405.1,75.4 396.4,78.6 388.2,82.9 380.5,88.2 
		373.7,94.5 367.6,101.5 362.6,109.3 358.5,117.7 355.6,126.5 353.8,135.6 353.2,144.9 353.8,135.6 355.6,126.5 358.5,117.7 
		362.6,109.3 367.6,101.5 373.7,94.5 380.5,88.2 388.2,82.9 396.4,78.6 405.1,75.4 414.2,73.3 423.4,72.4 432.7,72.7 441.9,74.2 
		450.8,76.8 459.3,80.6 467.3,85.4 474.5,91.2 481,97.9 486.6,105.4 491.1,113.4 494.6,122.1 497,131.1 498.2,140.3 498.2,149.6 
		497,158.8 494.6,167.8 491.1,176.4 486.6,184.5 481,192 474.5,198.6 467.3,204.4 459.3,209.2 450.8,213 441.9,215.7 432.7,217.1 
		423.4,217.4 414.2,216.5 405.1,214.5 396.4,211.3 388.2,207 380.5,201.7 373.7,195.4 367.6,188.3 362.6,180.5 358.5,172.2 
		355.6,163.3 353.8,154.2 353.2,144.9 	"/>
	
		<line style="clip-path:url(#SVGID_00000022541209655693214470000015339212308653027493_);fill:none;stroke:#000000;stroke-width:1.07;stroke-linejoin:round;stroke-miterlimit:10;stroke-dasharray:4.27,4.27;" x1="330" y1="144.9" x2="521.5" y2="144.9"/>
	
		<line style="clip-path:url(#SVGID_00000022541209655693214470000015339212308653027493_);fill:none;stroke:#000000;stroke-width:1.07;stroke-linejoin:round;stroke-miterlimit:10;stroke-dasharray:4.27,4.27;" x1="425.8" y1="240.7" x2="425.8" y2="49.2"/>
</g>
<text transform="matrix(1 0 0 1 314.1113 219.7409)" class="st26 st14 st27">−1.0</text>
<text transform="matrix(1 0 0 1 314.1113 183.466)" class="st26 st14 st27">−0.5</text>
<text transform="matrix(1 0 0 1 317.7949 147.1896)" class="st26 st14 st27">0.0</text>
<text transform="matrix(1 0 0 1 317.7949 110.9147)" class="st26 st14 st27">0.5</text>
<text transform="matrix(1 0 0 1 317.7949 74.6467)" class="st26 st14 st27">1.0</text>
<line class="st28" x1="328.1" y1="217.5" x2="330" y2="217.5"/>
<line class="st28" x1="328.1" y1="181.2" x2="330" y2="181.2"/>
<line class="st28" x1="328.1" y1="144.9" x2="330" y2="144.9"/>
<line class="st28" x1="328.1" y1="108.7" x2="330" y2="108.7"/>
<line class="st28" x1="328.1" y1="72.4" x2="330" y2="72.4"/>
<text transform="matrix(-6.123233e-17 -1 1 -6.123233e-17 308.0274 171.0056)" class="st14 st16">PCA2 (37.48%)</text>
<line class="st28" x1="353.2" y1="242.6" x2="353.2" y2="240.7"/>
<line class="st28" x1="389.5" y1="242.6" x2="389.5" y2="240.7"/>
<line class="st28" x1="425.8" y1="242.6" x2="425.8" y2="240.7"/>
<line class="st28" x1="462" y1="242.6" x2="462" y2="240.7"/>
<line class="st28" x1="498.3" y1="242.6" x2="498.3" y2="240.7"/>
<text transform="matrix(1 0 0 1 347.0039 248.6701)" class="st26 st14 st27">−1.0</text>
<text transform="matrix(1 0 0 1 383.2725 248.6701)" class="st26 st14 st27">−0.5</text>
<text transform="matrix(1 0 0 1 421.3887 248.6701)" class="st26 st14 st27">0.0</text>
<text transform="matrix(1 0 0 1 457.6631 248.6701)" class="st26 st14 st27">0.5</text>
<text transform="matrix(1 0 0 1 493.9395 248.6701)" class="st26 st14 st27">1.0</text>
<text transform="matrix(1 0 0 1 401.1504 258.4797)" class="st14 st29">PCA1 (62.52%)</text>
<text transform="matrix(1 0 0 1 316.4745 20.0925)"><tspan x="0" y="0" class="st14 st17">V</tspan><tspan x="7.2" y="0" class="st14 st17">a</tspan><tspan x="13.8" y="0" class="st14 st17">r</tspan><tspan x="18" y="0" class="st14 st17">ia</tspan><tspan x="27.3" y="0" class="st14 st17">b</tspan><tspan x="33.8" y="0" class="st14 st17">les</tspan></text>
<rect x="295.6" y="6" class="st0" width="16.2" height="16.2"/>
<text transform="matrix(1 0 0 1 300.209 17.9922)" class="st1 st2 st3">B</text>
<line class="st0" x1="295.6" y1="6" x2="295.6" y2="295.7"/>
<rect x="107.1" y="279.3" class="st30" width="7.1" height="7.1"/>
<path class="st31" d="M135.7,282.8c0-2,1.6-3.6,3.6-3.6c1.9,0,3.5,1.6,3.5,3.6c0,1.9-1.6,3.5-3.5,3.5
	C137.3,286.4,135.7,284.8,135.7,282.8"/>
<path class="st32" d="M163.3,283.7c0-2,1.6-3.6,3.6-3.6c2,0,3.6,1.6,3.6,3.6c0,1.9-1.6,3.5-3.6,3.5
	C164.9,287.2,163.3,285.6,163.3,283.7"/>
<line class="st33" x1="197.2" y1="287.2" x2="204.3" y2="280.1"/>
<line class="st33" x1="197.2" y1="280.1" x2="204.3" y2="287.2"/>
<polygon class="st34" points="235.9,279.1 240.7,287.4 231.1,287.4 "/>
<text transform="matrix(1 0 0 1 116.9497 286.0402)" class="st14 st16">M1</text>
<text transform="matrix(1 0 0 1 144.8893 286.4352)" class="st14 st16">M7</text>
<text transform="matrix(1 0 0 1 172.9754 287.2645)" class="st14 st16">M20</text>
<text transform="matrix(1 0 0 1 207.3346 287.2847)"><tspan x="0" y="0" class="st14 st16">W</tspan><tspan x="7.2" y="0" class="st14 st16">R3</tspan></text>
<text transform="matrix(1 0 0 1 243.121 287.3458)" class="st14 st16">M14</text>
</svg>
